<svg id="Layer_1" data-name="Layer 1" xmlns="http://www.w3.org/2000/svg" viewBox="0 0 576.38 194.54"><defs><style>.cls-1{fill:gray;}</style></defs><path class="cls-1" d="M537.58,426.75c-20.28,0-40.57,0-60.85.05-1.83,0-2.29-.42-2.27-2.26q.17-12.94,0-25.89c0-1.66.39-2,2-2,30.53.05,61.07,0,91.61.09,2,0,2.49-.49,2.48-2.49q-.12-30.64,0-61.29c0-1.84-.42-2.27-2.26-2.27-30.54.07-61.07,0-91.61.1-1.83,0-2.29-.41-2.27-2.26.11-8.7.09-17.41,0-26.11,0-1.45.37-1.81,1.81-1.8q61.29.06,122.58,0c1.45,0,1.81.36,1.81,1.8q-.06,61.29,0,122.58c0,1.74-.67,1.81-2,1.8Q568.11,426.73,537.58,426.75Z" transform="translate(-24.31 -260.59)"/><path class="cls-1" d="M174.43,363.46c0-20.21,0-40.41,0-60.62,0-1.84.41-2.27,2.26-2.27q60.84.09,121.69,0c1.83,0,2.28.4,2.28,2.26q-.12,36.94,0,73.9c0,1.82-.4,2.28-2.25,2.27q-30.75-.12-61.51,0c-1.83,0-2.3-.41-2.27-2.26.11-8.7.08-17.41,0-26.11,0-1.45.37-1.81,1.81-1.81,10.7.07,21.39,0,32.08.08,1.67,0,2.08-.39,2-2-.12-4.86-.09-9.74,0-14.6,0-1.26-.35-1.58-1.59-1.58q-31.43.06-62.84,0c-1.88,0-1.55,1-1.55,2q0,45.71.05,91.39c0,2.2-.48,2.76-2.71,2.72-8.48-.15-17-.11-25.44,0-1.66,0-2-.39-2-2C174.46,404.32,174.43,383.89,174.43,363.46Z" transform="translate(-24.31 -260.59)"/><path class="cls-1" d="M87.46,300.62c20.29,0,40.57,0,60.85-.05,1.84,0,2.29.42,2.27,2.26-.11,8.7-.09,17.41,0,26.11,0,1.45-.38,1.81-1.82,1.8-14.75-.05-29.5,0-44.25-.08-1.85,0-2.26.44-2.26,2.27.07,30.53,0,61.07.09,91.6,0,1.83-.41,2.29-2.26,2.27q-12.93-.17-25.88,0c-1.66,0-2-.39-2-2,.06-30.53,0-61.07.09-91.6,0-2-.47-2.5-2.48-2.49-14.46.09-28.91,0-43.37.09-1.65,0-2.06-.37-2-2q.15-13.05,0-26.11c0-1.66.4-2,2-2Q56.93,300.67,87.46,300.62Z" transform="translate(-24.31 -260.59)"/><path class="cls-1" d="M312.52,444.46q142.51,0,285-.06c2.2,0,2.94.47,2.71,2.72a48.89,48.89,0,0,0,0,6.63c0,1.07-.31,1.48-1.36,1.33a11.8,11.8,0,0,0-1.33,0q-285.24,0-570.48.06c-2.21,0-2.94-.47-2.71-2.71a49,49,0,0,0,0-6.64c0-1.07.3-1.47,1.36-1.33a13.34,13.34,0,0,0,1.55,0Z" transform="translate(-24.31 -260.59)"/><path class="cls-1" d="M387.76,300.62c20.21,0,40.42,0,60.63-.05,1.83,0,2.29.42,2.27,2.26-.11,8.7-.09,17.41,0,26.11,0,1.45-.37,1.8-1.81,1.8q-61.29-.06-122.58,0c-1.44,0-1.82-.35-1.81-1.8q.1-13.17,0-26.33c0-1.66.39-2,2-2Q357.11,300.67,387.76,300.62Z" transform="translate(-24.31 -260.59)"/><path class="cls-1" d="M387.43,379q-30.43,0-60.85,0c-1.73,0-2.17-.42-2.15-2.14q.13-13.07,0-26.11c0-1.57.39-1.92,1.93-1.92q61.18.07,122.36,0c1.55,0,1.94.37,1.93,1.92q-.13,13.17,0,26.33c0,1.57-.39,1.92-1.93,1.92Q418.08,378.9,387.43,379Z" transform="translate(-24.31 -260.59)"/><path class="cls-1" d="M387.54,426.75c-20.28,0-40.57,0-60.85.05-1.83,0-2.29-.42-2.27-2.26.11-8.7.09-17.41,0-26.11,0-1.45.37-1.81,1.81-1.8q61.29.06,122.58,0c1.44,0,1.82.35,1.81,1.8q-.11,13.15,0,26.33c0,1.66-.39,2-2,2Q418.07,426.7,387.54,426.75Z" transform="translate(-24.31 -260.59)"/><path class="cls-1" d="M511.69,279.81q-43.14,0-86.29.05c-1.82,0-2.42-.38-2.27-2.26a66.68,66.68,0,0,0,0-7.07c0-1.07.28-1.5,1.35-1.34a8.21,8.21,0,0,0,1.11,0q86.07,0,172.15-.05c2,0,2.67.44,2.49,2.48a41.56,41.56,0,0,0,0,6.41c.08,1.45-.36,1.82-1.81,1.81-7.15-.08-14.31,0-21.46,0Z" transform="translate(-24.31 -260.59)"/><path class="cls-1" d="M103.62,269.2q38.28,0,76.56-.05c1.84,0,2.4.41,2.26,2.26a64.31,64.31,0,0,0,0,7.08c0,1.08-.31,1.48-1.36,1.33a8.22,8.22,0,0,0-1.11,0q-76.56,0-153.12.05c-2,0-2.66-.47-2.48-2.49a42.86,42.86,0,0,0,0-6.41c-.09-1.47.39-1.81,1.82-1.8,11.28.06,22.57,0,33.85,0Z" transform="translate(-24.31 -260.59)"/><path class="cls-1" d="M218.77,278.92a10.86,10.86,0,0,0,0,2.21c.7,3.34-1.18,4.92-3.87,6.19-8,3.77-17,1.45-20.71-5.43a14.31,14.31,0,0,1,11.28-21.2,15.88,15.88,0,0,1,10.75,2.46c1.2.81,1.8,1.46.43,2.58a2.09,2.09,0,0,0-.14.17c-.75.91-1.34,2.19-2.31,2.62s-1.93-1-2.95-1.43c-3.92-1.8-8.19-.94-10.58,2.21a9.41,9.41,0,0,0,.23,11.48c2.53,2.94,7.31,3.66,11,1.8,1.93-1,1-2.6,1-3.89s-1.26-.44-1.94-.63a4.47,4.47,0,0,0-1.1,0c-3,0-2.89,0-3-3-.09-1.78.3-2.46,2.23-2.33,2.79.18,5.61.09,8.41,0,1,0,1.43.25,1.37,1.35C218.7,275.67,218.77,277.3,218.77,278.92Z" transform="translate(-24.31 -260.59)"/><path class="cls-1" d="M301.32,261c3.24,0,6.49.06,9.72,0,1.41,0,1.9.3,1.88,1.81-.06,3.79,0,3.8-3.83,3.8-4.62,0-4.62,0-4.62,4.72,0,5.16,0,10.32,0,15.47,0,1.34-.2,1.92-1.76,1.9-4.38,0-4.38,0-4.38-4.28,0-5.38-.05-10.76,0-16.13,0-1.36-.34-1.81-1.72-1.71-1.76.12-3.53,0-5.3.05-1.19.07-1.43-.37-1.45-1.49-.06-4.11-.11-4.11,3.89-4.11Z" transform="translate(-24.31 -260.59)"/><path class="cls-1" d="M350,260.6c-8.32-.18-14.89,6-15,14a14.18,14.18,0,0,0,14.34,14.47c8.36.11,14.89-6,15-14.07S358.35,260.77,350,260.6Zm-.18,22.84a8.63,8.63,0,0,1-.19-17.26,8.44,8.44,0,0,1,8.37,8.7A8.21,8.21,0,0,1,349.85,283.44Z" transform="translate(-24.31 -260.59)"/><path class="cls-1" d="M407.77,280.05c-.64-.91-.75-1.36.44-1.92a7.65,7.65,0,0,0,4.36-5.51c1.46-6.56-2.32-11.3-9.37-11.55-3.83-.14-7.66,0-11.49-.07-1.55,0-2,.39-2,1.95.08,7.14,0,14.29,0,21.43,0,4.44,0,4.4,4.57,4.32,1.14,0,1.53-.3,1.48-1.47-.09-2.06,0-4.12,0-6.18,0-.58-.09-1.09.79-1.26a4.75,4.75,0,0,1,5.52,2.24,8.73,8.73,0,0,1,1,1.46c1.93,4.56,5.23,6.37,10.34,4.83C411.57,285.58,409.71,282.79,407.77,280.05Zm-3.74-6c-2.45.71-5,.23-7.47.32-.72,0-.75-.54-.75-1.08v-2.66c0-4.12,0-4.12,4.29-4.12,1.19.12,2.58-.19,4,.28a3.56,3.56,0,0,1,2.63,3.65A3.46,3.46,0,0,1,404,274.08Z" transform="translate(-24.31 -260.59)"/><path class="cls-1" d="M260.13,261.69a1.33,1.33,0,0,0-1.52-.92,15.29,15.29,0,0,1-2.87,0,1.9,1.9,0,0,0-2.27,1.48c-1.24,3.15-2.61,6.24-3.93,9.35-2.22,5.21-4.39,10.43-6.66,15.61-.53,1.21-.33,1.46,1,1.49,4.59.12,4.59.16,6.26-4a4.66,4.66,0,0,0,.34-.81c.22-1.2,1-1.42,2.08-1.39,2.87.07,5.75.1,8.62,0a2,2,0,0,1,2.23,1.55c1.91,4.81,1.94,4.8,7.08,4.68a6.2,6.2,0,0,0,.79-.08c.05-.15.1-.24.08-.29Q265.72,275,260.13,261.69Zm-1.32,15.41c-1.54-.07-3.08,0-4.61,0-.58,0-1,0-.69-.83,1.08-2.6,2.14-5.22,3.34-8.17,1.13,2.79,2,5.18,3.07,7.49C260.57,277,260.06,277.16,258.81,277.1Z" transform="translate(-24.31 -260.59)"/></svg>